<svg id="Blocks" xmlns="http://www.w3.org/2000/svg" viewBox="0 0 500 500"><defs><style>.cls-1{fill:#fff;}.cls-2{fill:#757575;}</style></defs><title>Post slider block</title><path class="cls-1" d="M98.45,140.69l32,170.6L376.82,265l-32-170.6Z"/><path class="cls-2" d="M86.8,134.71l35.13,187,266-49.94L352.77,84.76ZM361.31,251.09,139.18,292.8,113.57,156.41,335.7,114.7Z"/><path class="cls-1" d="M156.15,203.26V360H405.2V203.26Z"/><path class="cls-2" d="M144.76,184.31V384.07H415.37V184.31ZM393.07,357.54h-226V211.88h226Z"/><path class="cls-2" d="M188.91,229.59V339.83H372.44V229.59Zm16.76,15.21h45.46v45.46H205.67Zm148.78,75.49H205.67V303.1H354.45Zm0-31.11H264.89V273.94h89.56Zm0-29.25H264.89V244.8h89.56Z"/></svg>