<svg id="Blocks" xmlns="http://www.w3.org/2000/svg" viewBox="0 0 500 500"><defs><style>.cls-1{fill:#fff;}.cls-2{fill:#e6e6e6;}</style></defs><title>Post slider block 2</title><path class="cls-1" d="M86.7,140.69l32,170.6L365.07,265,333,94.43Z"/><path class="cls-2" d="M75.05,134.71l35.13,187,266-49.94L341,84.76ZM349.56,251.09,127.43,292.8,101.82,156.41,323.94,114.7Z"/><path class="cls-1" d="M144.39,203.26V360H393.45V203.26Z"/><path class="cls-2" d="M133,184.31V384.07H403.62V184.31ZM381.32,357.54h-226V211.88h226Z"/><path class="cls-2" d="M177.16,229.59V339.83H360.69V229.59Zm16.76,15.21h45.46v45.46H193.92ZM342.7,320.29H193.92V303.1H342.7Zm0-31.11H253.13V273.94H342.7Zm0-29.25H253.13V244.8H342.7Z"/></svg>